<svg id="f6dc6f51-58d1-4328-a543-5a2c5176acea" data-name="Layer 1" xmlns="http://www.w3.org/2000/svg" width="922.18516" height="747.35665" viewBox="0 0 922.18516 747.35665"><path d="M420.91148,313.56734c-2.67984,100.75634,131.62869,203.61052,299.27661,203.61052S1154.817,318.5411,1028.01831,313.56734c-244.32514-9.5838-328.052-110.77046-303.55341-182.5C768.33985,2.60566,426.18809,115.17786,420.91148,313.56734Z" transform="translate(-138.90742 -76.32167)" fill="#3f3d56"/><polygon points="505.004 157.445 502.96 156.144 504.261 154.1 503.703 153.746 502.403 155.79 500.359 154.489 500.004 155.046 502.048 156.347 500.747 158.391 501.305 158.746 502.605 156.702 504.649 158.002 505.004 157.445" fill="#6c63ff"/><polygon points="657.004 305.445 654.96 304.144 656.261 302.1 655.703 301.746 654.403 303.79 652.359 302.489 652.004 303.046 654.048 304.347 652.747 306.391 653.305 306.746 654.605 304.702 656.649 306.002 657.004 305.445" fill="#6c63ff"/><polygon points="411.004 287.445 408.96 286.144 410.261 284.1 409.703 283.746 408.403 285.79 406.359 284.489 406.004 285.046 408.048 286.347 406.747 288.391 407.305 288.746 408.605 286.702 410.649 288.002 411.004 287.445" fill="#6c63ff"/><polygon points="595.004 383.445 592.96 382.144 594.261 380.1 593.703 379.746 592.403 381.79 590.359 380.489 590.004 381.046 592.048 382.347 590.747 384.391 591.305 384.746 592.605 382.702 594.649 384.002 595.004 383.445" fill="#6c63ff"/><polygon points="424.004 346.445 421.96 345.144 423.261 343.1 422.703 342.746 421.403 344.79 419.359 343.489 419.004 344.046 421.048 345.347 419.747 347.391 420.305 347.746 421.605 345.702 423.649 347.002 424.004 346.445" fill="#6c63ff"/><polygon points="836.004 297.445 833.96 296.144 835.261 294.1 834.703 293.746 833.403 295.79 831.359 294.489 831.004 295.046 833.048 296.347 831.747 298.391 832.305 298.746 833.605 296.702 835.649 298.002 836.004 297.445" fill="#6c63ff"/><polygon points="382.004 176.445 379.96 175.144 381.261 173.1 380.703 172.746 379.403 174.79 377.359 173.489 377.004 174.046 379.048 175.347 377.747 177.391 378.305 177.746 379.605 175.702 381.649 177.002 382.004 176.445" fill="#6c63ff"/><polygon points="553.004 198.924 550.142 197.104 551.963 194.242 551.183 193.746 549.362 196.607 546.501 194.786 546.004 195.567 548.866 197.387 547.045 200.249 547.825 200.746 549.646 197.884 552.507 199.705 553.004 198.924" fill="#fff"/><circle cx="450.00401" cy="233.74558" r="3" fill="#6c63ff"/><circle cx="333.00401" cy="233.74558" r="3" fill="#6c63ff"/><circle cx="537.00401" cy="123.74558" r="3" fill="#6c63ff"/><circle cx="509.00401" cy="306.74558" r="3" fill="#6c63ff"/><circle cx="507.00401" cy="243.74558" r="2" fill="#6c63ff"/><circle cx="712.00401" cy="331.74558" r="2" fill="#ff6584"/><circle cx="406.00401" cy="222.74558" r="2" fill="#ff6584"/><circle cx="531.00401" cy="60.74558" r="2" fill="#ff6584"/><circle cx="449.00401" cy="153.74558" r="2" fill="#6c63ff"/><circle cx="474.00401" cy="86.74558" r="2" fill="#fff"/><circle cx="773.00401" cy="266.74558" r="3" fill="#6c63ff"/><circle cx="574.00401" cy="277.74558" r="3" fill="#6c63ff"/><circle cx="523.00401" cy="348.74558" r="10" fill="#6c63ff"/><circle cx="644.00401" cy="239.74558" r="3" fill="#fff"/><path d="M230.83592,796.936s-5.597,23.40551-.50881,24.42314,30.02012.6892,36.1259,1.70682,18.82618-.68919,18.82618-5.26849S272.05,810.1652,272.05,810.1652s-18.82617-10.17629-19.335-10.68513S230.83592,796.936,230.83592,796.936Z" transform="translate(-138.90742 -76.32167)" fill="#2f2e41"/><path d="M236.8285,629.81327s1.825,20.68377,1.825,22.50877-10.95022,97.94367-8.51684,117.41076-.22527,25.68432-.22527,29.33445,19.6924,2.29952,19.6924,2.29952l21.29211-134.4444-10.95022-40.15079Z" transform="translate(-138.90742 -76.32167)" fill="#2f2e41"/><path d="M237.95935,802.05937s-5.08814,18.31737,0,19.335,30.02014-1.16571,36.12591-.14808,18.82617,1.16571,18.82617-3.41359-13.22919-7.63225-13.22919-7.63225-18.82618-10.17628-19.335-10.68513S237.95935,802.05937,237.95935,802.05937Z" transform="translate(-138.90742 -76.32167)" fill="#2f2e41"/><path d="M231.3534,605.47943s-7.30014,17.642,1.21669,26.76721,18.25038,27.37553,18.25038,28.59222-17.03362,122.27751-14.60029,130.186,1.825,12.77526,1.21668,13.99195,6.08346,7.90851,13.38361,7.90851,18.25037-5.47513,19.467-10.34188-1.825-46.84262-1.21668-54.75113S294.013,613.38794,290.9713,610.34618,231.3534,605.47943,231.3534,605.47943Z" transform="translate(-138.90742 -76.32167)" fill="#2f2e41"/><circle cx="138.68027" cy="368.55447" r="20.68377" fill="#9f616a"/><path d="M264.81243,455.218s4.25842,22.50881,1.21668,24.94218,23.11717,6.08345,23.11717,6.08345,3.04172-29.80894,3.65009-32.8507S264.81243,455.218,264.81243,455.218Z" transform="translate(-138.90742 -76.32167)" fill="#9f616a"/><path d="M292.79633,484.4186s3.924-21.43479-25.8849-15.35135c0,0-27.21669,22.31626-26,43s-9.558,80.63684-8.3413,84.89529-7.30015,9.73351-3.65007,11.55857,69.35142,12.77527,71.17645,0-.60836-45.01761.60835-51.101,0-57.1845-3.65007-63.26791S292.79633,484.4186,292.79633,484.4186Z" transform="translate(-138.90742 -76.32167)" fill="#6c63ff"/><path d="M280.02108,632.855s-9.12519,34.67573,2.43338,34.67573,10.95022-35.89241,10.95022-35.89241Z" transform="translate(-138.90742 -76.32167)" fill="#9f616a"/><path d="M286.01477,448.32791c-.26387,1.74438-2.95756,2.469-6.91157,2.12925l-.006-.00091a33.1451,33.1451,0,0,1-4.9659-.84962c-2.46763-.60707-3.858,1.58829-4.75466,4.62742-1.472,5.01326-1.58306,12.33657-2.878,13.29123-9.03973,4.99664-35.75065-28.50373-22.06325-37.17712,4.875-3.08915,21.28527-14.623,32.62282-12.29264s6.74781,16.4024,6.74781,16.4024.41583,1.8472.88756,4.21965a63.44555,63.44555,0,0,1,1.35858,9.07762A4.42082,4.42082,0,0,1,286.01477,448.32791Z" transform="translate(-138.90742 -76.32167)" fill="#2f2e41"/><path d="M287.32123,490.50208s-20.68375-1.21669-22.50879,29.20063-1.21669,59.0095-1.21669,59.61788,8.51684,58.40119,16.42533,58.40119,13.992-1.21669,15.817-4.25845-4.86677-46.84261-4.86677-46.84261-3.04172-46.2343,1.825-60.83457S298.27145,492.32711,287.32123,490.50208Z" transform="translate(-138.90742 -76.32167)" fill="#6c63ff"/><polyline points="125.004 451.746 119.004 516.746 139.004 561.746 126.004 515.746 125.004 450.746" opacity="0.1" style="isolation:isolate"/><polygon points="154.004 458.746 155.532 535.375 150.004 493.746 154.004 458.746" opacity="0.1" style="isolation:isolate"/><polygon points="257.738 747.357 0 747.357 0 745.251 258.12 745.251 257.738 747.357" fill="#3f3d56"/></svg>